<?xml version="1.0" encoding="utf-8"?>
<!-- Generator: Adobe Illustrator 21.1.0, SVG Export Plug-In . SVG Version: 6.00 Build 0)  -->
<svg version="1.1" id="Layer_1" xmlns="http://www.w3.org/2000/svg" xmlns:xlink="http://www.w3.org/1999/xlink" x="0px" y="0px"
	 viewBox="0 0 1314.7 726.2" style="enable-background:new 0 0 1314.7 726.2;" xml:space="preserve">
<style type="text/css">
	.st0{fill:#FFFFFF;}
	.st1{fill:#ED1C26;}
</style>
<path class="st0" d="M0,720.7c0,2.4,1.2,3.7,3.7,3.7h45.8c2.4,0,3.7-1.2,3.7-3.7V620.3c0-2.7,1.2-4,3.7-4h112.5
	c2.4,0,3.7-1.2,3.7-3.7v-40.3c0-2.4-1.2-3.7-3.7-3.7H56.8c-2.4,0-3.7-1.3-3.7-4v-34.8c0-6.6,1.3-11.7,3.8-15.2
	c2.6-3.5,7.1-5.3,13.7-5.3h110.6c2.4,0,3.7-1.2,3.7-3.7v-40.3c0-2.4-1.2-3.7-3.7-3.7H53.1c-7.1-0.1-14.2,1-21.1,3.1
	c-6.2,1.9-11.9,5-16.9,9.1c-4.9,4.1-8.7,9.3-11.2,15.2c-2.7,6.1-4,13.3-4,21.6L0,720.7z M319.8,537.2v128.6c0,2.2-1,4.3-3.1,6.2
	c-2.4,2.2-5.2,3.9-8.2,5.1c-3.7,1.5-7.6,2.7-11.5,3.3c-4.4,0.7-8.9,1.1-13.4,1.1c-4.5,0-9.1-0.4-13.5-1.1c-4-0.6-7.8-1.7-11.5-3.3
	c-3-1.2-5.7-3-8.1-5.1c-2.1-2-3.1-4-3.1-6.2V537.2c0-2.4-1.2-3.7-3.7-3.7h-37.4c-2.4,0-3.7,1.2-3.7,3.7v144.3
	c-0.2,7.4,2.4,14.5,7.1,20.2c5.1,5.9,11.4,10.6,18.5,13.9c8.2,3.9,16.9,6.6,25.8,8.1c9.7,1.7,19.6,2.6,29.5,2.6
	c9.8,0,19.5-0.9,29.1-2.6c9-1.5,17.7-4.2,26-8.1c7.1-3.3,13.5-8,18.7-13.9c4.8-5.6,7.3-12.8,7.1-20.2V537.2c0-2.4-1.2-3.7-3.7-3.7
	h-37.3C321,533.5,319.8,534.8,319.8,537.2 M393.8,465.4v255.3c0,2.4,1.2,3.7,3.7,3.7h37.4c2.4,0,3.7-1.2,3.7-3.7V465.4
	c0-2.4-1.2-3.7-3.7-3.7h-37.4C395,461.7,393.8,463,393.8,465.4 M469.2,465.4v255.3c0,2.4,1.2,3.7,3.7,3.7h37.4
	c2.4,0,3.7-1.2,3.7-3.7V465.4c0-2.4-1.2-3.7-3.7-3.7h-37.4C470.5,461.7,469.2,463,469.2,465.4 M607,581.9c0-2.4,1.2-3.7,3.7-3.7h30
	c2.4,0,3.7-1.2,3.7-3.7v-37.4c0-2.4-1.2-3.7-3.7-3.7h-30c-2.4,0-3.7-1.2-3.7-3.7v-45.8c0-2.4-1.2-3.7-3.7-3.7h-37.4
	c-2.4,0-3.7,1.2-3.7,3.7v45.8c0,2.4-1.2,3.7-3.7,3.7h-19.4c-2.4,0-3.7,1.2-3.7,3.7v37.4c0,2.4,1.2,3.7,3.7,3.7h19.4
	c2.4,0,3.7,1.2,3.7,3.7v114.3c0,7.6,3.1,14.2,9.2,19.8s13.8,8.4,23.1,8.4h46.2c2.4,0,3.7-1.2,3.7-3.7v-37.4c0-2.2-1-3.4-2.9-3.7
	h-30.8c-2.4,0-3.7-1.2-3.7-3.7L607,581.9z M668.9,720.7c0,2.4,1.2,3.7,3.7,3.7h37.4c2.4,0,3.7-1.2,3.7-3.7V537.2
	c0-2.4-1.2-3.7-3.7-3.7h-37.4c-2.4,0-3.7,1.2-3.7,3.7L668.9,720.7z M668.9,465.4v37.4c0,2.4,1.2,3.7,3.7,3.7h37.4
	c2.4,0,3.7-1.2,3.7-3.7v-37.4c0-2.4-1.2-3.7-3.7-3.7h-37.4C670.1,461.7,668.9,463,668.9,465.4 M744.3,720.7c0,2.4,1.2,3.7,3.7,3.7
	h37.4c2.4,0,3.7-1.2,3.7-3.7V585.2c0-2.8,0.9-5.5,2.8-7.7c1.6-2.1,4.1-3.3,6.8-3.3h33.7c5.7,0,11.3,2.2,15.6,6
	c4.8,4,7.1,8.5,7.1,13.4v127.2c0,2.4,1.2,3.7,3.7,3.7H896c2.4,0,3.7-1.2,3.7-3.7V593.6c0-6.4,2.1-11.2,6.4-14.5s8.6-4.9,13-4.9h24.2
	c2.9,0,5.9,0.6,8.6,1.7c3.1,1.1,5.9,2.8,8.4,4.9c2.6,2.2,4.8,4.9,6.4,7.9c1.7,3.2,2.6,6.8,2.6,10.4v121.6c0,2.4,1.3,3.7,4,3.7h37
	c2.4,0,3.7-1.2,3.7-3.7V594.3c-0.1-7.3-1.8-14.5-4.9-21.1c-3.4-7.3-8.1-14-13.9-19.6c-6.2-6-13.5-10.9-21.4-14.5
	c-8.6-3.9-18-5.8-27.5-5.7h-26c-1.5,0-4.7,0.2-9.7,0.5c-5.2,0.4-10.3,2-14.8,4.6c-2.5,1.1-4.8,2.6-6.8,4.4c-1.6,1.5-3.2,3.1-4.6,4.8
	c-1.2,1.5-2.3,2.6-3.1,3.5c-0.9,0.9-1.5,1.3-2,1.3c-0.5,0-1.5-0.8-3.1-2.4l-4.2-4.2c-2.4-2.4-6.3-5.1-11.7-8.1
	c-5.4-2.9-11.4-4.5-17.6-4.4h-75.8c-5.4,0-10.4,2.1-15.2,6.4c-4.6,3.9-7.2,9.6-7.1,15.6L744.3,720.7z M1082.8,650.4h135.5
	c2.4,0,3.7-1.2,3.7-3.7v-38.1c0.1-10.6-1.5-21.1-4.9-31.1c-3.1-9-8.5-17.2-15.6-23.6c-7.1-6.5-16.1-11.5-27.1-15s-24.1-5.3-39.2-5.3
	c-12.3,0-24.5,1.5-36.4,4.6c-11.9,2.9-23,8.4-32.6,15.9c-9.6,7.6-17.5,17.8-23.4,30.6s-9,29-9,48.5c0,16.1,1.8,29.9,5.3,41.4
	c3.2,11,9.4,20.8,18,28.4c8.4,7.4,19.5,12.9,33.3,16.3c13.8,3.4,30.9,5.1,51.5,5.1h61.9c2.4,0,3.7-1.2,3.7-3.7v-37.4
	c0-2.4-1.2-3.7-3.7-3.7h-87.2c-5,0-9.9-0.6-14.7-2c-4.2-1.2-8.3-3-11.9-5.5c-3.1-2.1-5.8-4.9-7.9-8.1c-1.9-3-3-6.5-2.9-10.1
	C1079.2,651.6,1080.4,650.4,1082.8,650.4 M1082.8,607.6c-2.4,0-3.7-1.2-3.7-3.7c0-4.7,1.8-8.9,5.5-12.6c4-4,8.6-7.2,13.7-9.5
	c5.5-2.6,11.3-4.6,17.2-6c5.3-1.4,10.8-2.1,16.3-2.2c15.4,0,27.4,2.7,35.9,8.2c8.5,5.5,12.8,12.9,12.8,22.2c0,2.4-1.2,3.7-3.7,3.7
	L1082.8,607.6z"/>
<path class="st1" d="M331.8,0h644.9v253.5L859.6,370.6H331.8L331.8,0z"/>
<g>
	<path class="st0" d="M362.8,42.7h296v88.8h-296V42.7z"/>
	<path class="st0" d="M362.8,144.6h197.3v88.8H362.8L362.8,144.6z"/>
	<path class="st0" d="M362.8,246.5h92.1v88.8h-92.1L362.8,246.5z"/>
</g>
<path class="st0" d="M1280.1,466.4c6,0,11.8,1.6,17.1,4.5c5.4,2.9,9.9,7.4,12.9,12.8c6.2,10.7,6.2,23.9,0.1,34.6
	c-3,5.4-7.4,9.8-12.8,12.8c-10.7,6.1-23.8,6.1-34.4,0c-5.4-3-9.8-7.4-12.8-12.8c-6.1-10.7-6.1-23.9,0.1-34.6
	c3-5.4,7.4-9.8,12.8-12.8C1268.2,468,1274.1,466.5,1280.1,466.4 M1280.1,473.3c-4.8,0-9.5,1.2-13.7,3.6c-4.4,2.3-7.9,5.9-10.3,10.2
	c-5,8.6-5,19.2-0.1,27.8c2.4,4.3,5.9,7.9,10.3,10.3c8.6,4.9,19.1,4.9,27.6,0c4.3-2.4,7.9-5.9,10.3-10.3c4.9-8.6,4.9-19.2-0.1-27.8
	c-2.4-4.3-6-7.9-10.3-10.2C1289.6,474.5,1284.9,473.3,1280.1,473.3 M1288.5,506.2c-0.5,2.3-1.7,4.4-3.4,6c-1.5,1.2-3.3,1.8-5.2,1.8
	c-2.4,0-4.7-1.2-6.2-3.1c-1.7-2.1-2.6-5.3-2.6-9.7c0-4.4,0.9-7.6,2.6-9.7c1.6-2,4.1-3.2,6.7-3.1c1.7,0,3.4,0.5,4.8,1.5
	c1.5,1.3,2.7,2.9,3.3,4.8l7.3-1.7c-1-3.3-3.1-6.2-5.8-8.3c-2.7-1.8-6-2.8-9.3-2.6c-3.2,0-6.3,0.7-9.1,2.3c-2.8,1.5-5,3.9-6.2,6.8
	c-1.5,3.3-2.2,6.8-2.2,10.4c0,5.9,1.6,10.6,4.9,13.9c3.3,3.4,7.9,5.2,12.6,5c3.4,0.1,6.7-1,9.5-3c2.8-2.2,4.8-5.3,5.7-8.7
	L1288.5,506.2z"/>
</svg>
